# xmcd CD database file
#
# Track frame offsets:
#	182
#	11617
#	27347
#	39307
#	52570
#	66702
#	80140
#	92697
#	105872
#	130397
#	142362
#	155435
#	167435
#	182937
#	206575
#	221182
#	232940
#	246550
#
# Disc length: 3451 seconds
#
# Revision: 0
# Processed by: cddbd v1.5.1PL0 Copyright (c) Steve Scherf et al.
# Submitted via: CDex 1.51
#
DISCID=000d7912
DTITLE=Woody Herman And The Third Herd - Early Autumn [Discovery]
DYEAR=1987
DGENRE=Jazz
TTITLE0=Stompin' At The Savoy
TTITLE1=Terrissita
TTITLE2=Moten Swing
TTITLE3=Blue Lou
TTITLE4=I Love Paris
TTITLE5=The Moon Is Blue
TTITLE6=Beau Jazz
TTITLE7=Early Autumn
TTITLE8=Mambo The Most(Mambo The Utmost)
TTITLE9=Mother Goose Jumps
TTITLE10=Four Others
TTITLE11=Buck Dance
TTITLE12=Sorry 'bout The Whole Darned Thing
TTITLE13=Men From Mars
TTITLE14=Singing In The Rain
TTITLE15=Fancy Woman
TTITLE16=Stardust
TTITLE17=I'm Making Up For Lost Time
EXTD=YEAR: 1987
EXTT0=
EXTT1=
EXTT2=
EXTT3=
EXTT4=
EXTT5=
EXTT6=
EXTT7=
EXTT8=
EXTT9=
EXTT10=
EXTT11=
EXTT12=
EXTT13=
EXTT14=
EXTT15=
EXTT16=
EXTT17=
PLAYORDER=
